# xmcd
#
# Track frame offsets: 
#        182
#        22562
#        56890
#        79962
#        103385
#        126712
#        155017
#        190525
#        223417
#        257437
#        292162
#
# Disc length: 4418 seconds
#
# Revision: 3
# Processed by: cddbd v1.5.2PL0 Copyright (c) Steve Scherf et al.
# Submitted via: ExactAudioCopy v1.0b1
#
DISCID=a911400b
DTITLE=Various Artist - Solar System Vol. 1
DYEAR=1993
DGENRE=Solar
TTITLE0=Midnight Star - Midas Touch
TTITLE1=Whispers - And The Beat Goes On
TTITLE2=Shalamar - Take That To The Bank
TTITLE3=Midnight Star - Wet My Whistle
TTITLE4=Whispers - It's A Love Thing
TTITLE5=Shalamar - There It Is
TTITLE6=Midnight Star - Headlines
TTITLE7=Shalamar - A Night To Remember
TTITLE8=Midnight Star - Operator
TTITLE9=Various Artist - And The Mix Goes On
TTITLE10=Various Artist - And On
EXTD=
EXTT0=
EXTT1=
EXTT2=
EXTT3=
EXTT4=
EXTT5=
EXTT6=
EXTT7=
EXTT8=
EXTT9=
EXTT10=
PLAYORDER=
